<svg id="Capa_1" enable-background="new 0 0 512 512" height="512" viewBox="0 0 512 512" width="512" xmlns="http://www.w3.org/2000/svg"><g><path d="m33.58 139.89h440.32v257.82h-440.32z" fill="#f0f7ff"/><path d="m256 139.89h217.9v257.82h-217.9z" fill="#dfe7f4"/><path d="m301 427v60c0 8.292-6.72 15-15 15h-60c-8.292 0-15-6.72-15-15v-60c0-8.314 6.737-15 15-15h60c8.275 0 15 6.698 15 15z" fill="#4793ff"/><path d="m301 427v60c0 8.292-6.72 15-15 15h-30v-90h30c8.275 0 15 6.698 15 15z" fill="#525cdd"/><g><path d="m271 75v62c0 8.28-6.72 15-15 15s-15-6.72-15-15v-62c0-8.28 6.72-15 15-15s15 6.72 15 15z" fill="#4793ff"/></g><g><path d="m166 152c-8.284 0-15-6.716-15-15v-77h-50.497c-8.284 0-15-6.716-15-15s6.716-15 15-15h65.497c8.284 0 15 6.716 15 15v92c0 8.284-6.716 15-15 15z" fill="#4793ff"/></g><g><path d="m346 152c-8.284 0-15-6.716-15-15v-92c0-8.284 6.716-15 15-15h65.497c8.284 0 15 6.716 15 15s-6.716 15-15 15h-50.497v77c0 8.284-6.716 15-15 15z" fill="#525cdd"/></g><path d="m256 152v-92c8.28 0 15 6.72 15 15v62c0 8.28-6.72 15-15 15z" fill="#525cdd"/><path d="m477 122h-442c-8.28 0-15 6.72-15 15v300c0 8.222 6.665 15 15 15h442c8.28 0 15-6.72 15-15v-300c0-8.28-6.72-15-15-15zm-15 255h-412v-225h412z" fill="#5e54ac"/><path d="m492 137v300c0 8.28-6.72 15-15 15h-221v-75h206v-225h-206v-30h221c8.28 0 15 6.72 15 15z" fill="#453d81"/><g><path d="m352.63 497c0 8.28-6.71 15-15 15h-163.26c-8.29 0-15-6.72-15-15s6.71-15 15-15h163.26c8.29 0 15 6.72 15 15z" fill="#5e54ac"/></g><g><g><g><path d="m309.04 292.68c-2.93 2.93-6.77 4.39-10.61 4.39s-7.68-1.46-10.61-4.39c-8.49-8.5-19.8-13.18-31.82-13.18s-23.33 4.68-31.82 13.18c-5.86 5.86-15.36 5.86-21.22 0-5.85-5.86-5.85-15.36 0-21.21 14.17-14.17 33-21.97 53.04-21.97s38.87 7.8 53.04 21.97c5.85 5.85 5.85 15.35 0 21.21z" fill="#df5ccb"/></g></g></g><g><g><g><path d="m351.45 250.26c-2.92 2.93-6.76 4.39-10.6 4.39s-7.68-1.46-10.61-4.39c-19.82-19.84-46.19-30.76-74.24-30.76s-54.42 10.92-74.24 30.76c-5.86 5.86-15.36 5.86-21.21 0-5.86-5.86-5.87-15.35-.01-21.21 25.49-25.5 59.39-39.55 95.46-39.55s69.97 14.05 95.46 39.55c5.86 5.86 5.85 15.35-.01 21.21z" fill="#df5ccb"/></g></g></g><g><g><g><circle cx="256" cy="324.5" fill="#df5ccb" r="15"/></g></g></g><g><circle cx="256" cy="45" fill="#ffe14d" r="45"/></g><g><circle cx="70.5" cy="45" fill="#ffe14d" r="45"/></g><g><circle cx="441.5" cy="45" fill="#fabe2c" r="45"/></g><path d="m256 90v-90c24.81 0 45 20.19 45 45s-20.19 45-45 45z" fill="#fabe2c"/><path d="m352.63 497c0 8.28-6.71 15-15 15h-81.63v-30h81.63c8.29 0 15 6.72 15 15z" fill="#453d81"/><g fill="#c63eba"><path d="m256 339.5v-30c8.28 0 15 6.71 15 15 0 8.28-6.72 15-15 15z"/><path d="m309.04 271.47c5.85 5.85 5.85 15.35 0 21.21-2.93 2.93-6.77 4.39-10.61 4.39s-7.68-1.46-10.61-4.39c-8.49-8.5-19.8-13.18-31.82-13.18v-30c20.04 0 38.87 7.8 53.04 21.97z"/><path d="m351.45 250.26c-2.92 2.93-6.76 4.39-10.6 4.39s-7.68-1.46-10.61-4.39c-19.82-19.84-46.19-30.76-74.24-30.76v-30c36.07 0 69.97 14.05 95.46 39.55 5.86 5.86 5.85 15.35-.01 21.21z"/></g></g></svg>